<svg width="52" height="52" viewBox="0 0 52 52" fill="none" xmlns="http://www.w3.org/2000/svg">
<g id="instagram">
<path id="Vector" d="M36.8334 4.33325H15.1667C9.18362 4.33325 4.33337 9.1835 4.33337 15.1666V36.8332C4.33337 42.8163 9.18362 47.6666 15.1667 47.6666H36.8334C42.8165 47.6666 47.6667 42.8163 47.6667 36.8332V15.1666C47.6667 9.1835 42.8165 4.33325 36.8334 4.33325Z" stroke="#007BFF" stroke-width="2" stroke-linecap="round" stroke-linejoin="round"/>
<path id="Vector_2" d="M34.6667 24.6349C34.9341 26.4381 34.6261 28.2797 33.7865 29.8978C32.947 31.5158 31.6185 32.828 29.9902 33.6475C28.362 34.4671 26.5167 34.7524 24.7169 34.4628C22.9172 34.1732 21.2545 33.3234 19.9655 32.0344C18.6765 30.7454 17.8268 29.0828 17.5372 27.283C17.2476 25.4833 17.5329 23.638 18.3524 22.0097C19.172 20.3814 20.4841 19.053 22.1022 18.2134C23.7203 17.3739 25.5619 17.0659 27.3651 17.3333C29.2044 17.606 30.9072 18.4631 32.2221 19.7779C33.5369 21.0927 34.394 22.7956 34.6667 24.6349Z" stroke="#007BFF" stroke-width="2" stroke-linecap="round" stroke-linejoin="round"/>
<path id="Vector_3" d="M37.9166 14.0833H37.9383" stroke="#007BFF" stroke-width="2" stroke-linecap="round" stroke-linejoin="round"/>
</g>
</svg>
