<svg width="52" height="52" viewBox="0 0 52 52" fill="none" xmlns="http://www.w3.org/2000/svg">
<g id="github">
<path id="Vector" d="M19.5 41.1667C8.66671 44.4167 8.66671 35.75 4.33337 34.6667M34.6667 47.6667V39.2817C34.748 38.2485 34.6084 37.2099 34.2572 36.2349C33.9061 35.2599 33.3514 34.3708 32.63 33.6267C39.4334 32.8684 46.5834 30.29 46.5834 18.46C46.5828 15.435 45.4192 12.526 43.3334 10.335C44.3211 7.68846 44.2512 4.76312 43.1384 2.16669C43.1384 2.16669 40.5817 1.40836 34.6667 5.37336C29.7007 4.02747 24.466 4.02747 19.5 5.37336C13.585 1.40836 11.0284 2.16669 11.0284 2.16669C9.91552 4.76312 9.84569 7.68846 10.8334 10.335C8.73198 12.5422 7.56717 15.4775 7.58337 18.525C7.58337 30.2684 14.7334 32.8467 21.5367 33.6917C20.8239 34.4283 20.2741 35.3067 19.9232 36.2699C19.5723 37.233 19.4281 38.2592 19.5 39.2817V47.6667" stroke="#007BFF" stroke-width="2" stroke-linecap="round" stroke-linejoin="round"/>
</g>
</svg>
