<svg width="52" height="52" viewBox="0 0 52 52" fill="none" xmlns="http://www.w3.org/2000/svg">
<g id="linkedin">
<path id="Vector" d="M34.6666 17.3333C38.1144 17.3333 41.421 18.7029 43.859 21.1409C46.297 23.5788 47.6666 26.8854 47.6666 30.3333V45.4999H39V30.3333C39 29.184 38.5434 28.0818 37.7308 27.2691C36.9181 26.4565 35.8159 25.9999 34.6666 25.9999C33.5174 25.9999 32.4152 26.4565 31.6025 27.2691C30.7898 28.0818 30.3333 29.184 30.3333 30.3333V45.4999H21.6666V30.3333C21.6666 26.8854 23.0363 23.5788 25.4742 21.1409C27.9122 18.7029 31.2188 17.3333 34.6666 17.3333Z" stroke="#007BFF" stroke-width="2" stroke-linecap="round" stroke-linejoin="round"/>
<path id="Vector_2" d="M13 19.5H4.33337V45.5H13V19.5Z" stroke="#007BFF" stroke-width="2" stroke-linecap="round" stroke-linejoin="round"/>
<path id="Vector_3" d="M8.66671 12.9999C11.0599 12.9999 13 11.0598 13 8.66659C13 6.27335 11.0599 4.33325 8.66671 4.33325C6.27347 4.33325 4.33337 6.27335 4.33337 8.66659C4.33337 11.0598 6.27347 12.9999 8.66671 12.9999Z" stroke="#007BFF" stroke-width="2" stroke-linecap="round" stroke-linejoin="round"/>
</g>
</svg>
