<svg width="52" height="52" viewBox="0 0 52 52" fill="none" xmlns="http://www.w3.org/2000/svg">
<g id="twitter">
<path id="Vector" d="M49.8333 6.50006C47.7585 7.96359 45.4612 9.08296 43.03 9.81506C41.7251 8.31467 39.9909 7.25122 38.0619 6.76857C36.1329 6.28591 34.1022 6.40732 32.2445 7.11637C30.3867 7.82543 28.7916 9.08793 27.6748 10.7331C26.5579 12.3783 25.9733 14.3268 26 16.3151V18.4817C22.1923 18.5805 18.4194 17.736 15.0171 16.0235C11.6149 14.3111 8.68898 11.7838 6.49996 8.66673C6.49996 8.66673 -2.16671 28.1667 17.3333 36.8334C12.8711 39.8623 7.55547 41.3811 2.16663 41.1667C21.6666 52.0001 45.5 41.1667 45.5 16.2501C45.498 15.6465 45.4399 15.0445 45.3266 14.4517C47.5379 12.271 49.0984 9.5176 49.8333 6.50006Z" stroke="#007BFF" stroke-width="2" stroke-linecap="round" stroke-linejoin="round"/>
</g>
</svg>
